<?xml version="1.0" encoding="UTF-8"?>
<svg id="_layer_2" data-name="layer 2" xmlns="http://www.w3.org/2000/svg" viewBox="0 0 51.4 51.11">
  <defs>
    <style>
      .cls-1 {
      fill: none;
      stroke: #15803d;
      stroke-linecap: round;
      stroke-linejoin: round;
      stroke-width: 2px;
      }
    </style>
  </defs>
  <g id="_layer_1-2" data-name="layer 1">
    <g>
      <path class="cls-1"
        d="M31.98,15.58c-1.49-2.2-3.72-4.83-6.97-7.06-1.6-1.1-3.71-2.53-6.84-3.32-3.62-.92-6.9-.57-8.65-.39-.92,.1-1.68,.22-2.23,.32-.89,2.17-2.42,6.77-1.45,12.45,.48,2.81,1.22,4.39,2.07,5.99" />
      <path class="cls-1"
        d="M24.56,10.84c-.78,.76-1.36,1.42-2.35,2.77-1.48,2.04-2.27,3.77-2.45,4.19-.38,.86-1.03,2.35-1.39,4.39-.39,2.2-.22,3.77-.16,4.23,.02,.19,.05,.34,.06,.45" />
      <path class="cls-1"
        d="M28.13,8.23c.84-.47,1.27-.78,2.66-1.29,2.34-.86,4.21-1.13,4.65-1.19,1.03-.14,3.01-.4,5.55,0,2.15,.33,3.9,1.01,5.19,1.65,.19,.89,.41,2.16,.52,3.7,.15,2.03,.32,4.56-.51,7.67-.74,2.77-1.93,4.73-2.52,5.61-.85,1.28-1.63,2.1-3.15,3.68-1.15,1.2-2.67,2.67-4.55,4.26" />
      <path class="cls-1"
        d="M43.32,28.1c.9,1.53,1.69,3.17,2.25,6,1.12,5.7-.5,10.36-1.35,12.39-1.13,.21-2.72,.44-4.63,.48-2.5,.06-5.75,.15-9.21-1.34-2.19-.94-3.53-2.11-6-4.27-2.31-2.02-4.01-3.94-5.13-5.32" />
      <path class="cls-1" d="M24.73,18.25c1.86-.02,5,.18,8.54,1.65,3.85,1.59,6.02,3.58,7.31,4.98" />
      <path class="cls-1"
        d="M27.01,40.75c1.36-1.29,2.82-3.01,4.32-6.36,1.83-4.09,1.98-9.7,1.9-11.69" />
      <path class="cls-1" d="M10.63,27.13c1.32,1.35,3.33,2.8,6.82,4.31,3.78,1.63,7.16,1.86,9.1,1.84" />
      <path class="cls-1"
        d="M15.42,19.39c-3.05,2.26-5.1,4.57-6.39,6.24-1.4,1.81-2.67,3.46-3.53,6.05-.8,2.42-.86,4.49-.92,6.53-.07,2.32,.13,4.27,.34,5.66,1.52,.86,4.27,2.15,7.94,2.39,5.42,.36,9.29-1.7,10.81-2.62" />
      <rect class="cls-1" x="1" y="1" width="49.4" height="49.11" />
    </g>
  </g>
</svg>